<mxfile host="app.diagrams.net" modified="2023-08-25T11:05:43.955Z" agent="Mozilla/5.0 (Windows NT 10.0; Win64; x64) AppleWebKit/537.36 (KHTML, like Gecko) Chrome/116.0.0.0 Safari/537.36" etag="eUHi5jc_DUoke33A87js" version="21.6.9" type="device">
  <diagram name="Page-1" id="197159a0-c6a4-9194-75a8-e4174976684c">
    <mxGraphModel dx="1050" dy="534" grid="1" gridSize="10" guides="1" tooltips="1" connect="1" arrows="1" fold="1" page="1" pageScale="1.5" pageWidth="1169" pageHeight="826" background="none" math="0" shadow="0">
      <root>
        <mxCell id="0" style=";html=1;" />
        <mxCell id="1" style=";html=1;" parent="0" />
        <mxCell id="1257a543d1cacc4b-52" value="Title" style="text;strokeColor=none;fillColor=none;html=1;fontSize=24;fontStyle=1;verticalAlign=middle;align=center;" parent="1" vertex="1">
          <mxGeometry x="160" y="60" width="1420" height="40" as="geometry" />
        </mxCell>
        <mxCell id="rXg8Y6JAzaDxi5jEFKsL-1" value="" style="shadow=0;dashed=0;html=1;strokeColor=none;fillColor=#4495D1;labelPosition=center;verticalLabelPosition=bottom;verticalAlign=top;align=center;outlineConnect=0;shape=mxgraph.veeam.2d.virtual_machine;" vertex="1" parent="1">
          <mxGeometry x="270" y="270" width="140" height="124" as="geometry" />
        </mxCell>
        <mxCell id="rXg8Y6JAzaDxi5jEFKsL-3" value="Trust-center" style="text;strokeColor=none;align=center;fillColor=none;html=1;verticalAlign=middle;whiteSpace=wrap;rounded=0;fontSize=16;" vertex="1" parent="1">
          <mxGeometry x="312.4" y="220" width="60" height="30" as="geometry" />
        </mxCell>
        <mxCell id="rXg8Y6JAzaDxi5jEFKsL-4" value="ip адрес динамический обращаться по dns имени trust-center" style="text;strokeColor=none;align=center;fillColor=none;html=1;verticalAlign=middle;whiteSpace=wrap;rounded=0;" vertex="1" parent="1">
          <mxGeometry x="312.4" y="420" width="60" height="30" as="geometry" />
        </mxCell>
        <mxCell id="rXg8Y6JAzaDxi5jEFKsL-5" style="edgeStyle=orthogonalEdgeStyle;rounded=0;orthogonalLoop=1;jettySize=auto;html=1;exitX=0.5;exitY=1;exitDx=0;exitDy=0;" edge="1" parent="1" source="rXg8Y6JAzaDxi5jEFKsL-4" target="rXg8Y6JAzaDxi5jEFKsL-4">
          <mxGeometry relative="1" as="geometry" />
        </mxCell>
        <mxCell id="rXg8Y6JAzaDxi5jEFKsL-7" value="" style="shadow=0;dashed=0;html=1;strokeColor=none;fillColor=#4495D1;labelPosition=center;verticalLabelPosition=bottom;verticalAlign=top;align=center;outlineConnect=0;shape=mxgraph.veeam.2d.virtual_machine;" vertex="1" parent="1">
          <mxGeometry x="510" y="270" width="140" height="124" as="geometry" />
        </mxCell>
        <mxCell id="rXg8Y6JAzaDxi5jEFKsL-10" value="Openvpn" style="text;strokeColor=none;align=center;fillColor=none;html=1;verticalAlign=middle;whiteSpace=wrap;rounded=0;" vertex="1" parent="1">
          <mxGeometry x="540" y="220" width="60" height="30" as="geometry" />
        </mxCell>
      </root>
    </mxGraphModel>
  </diagram>
</mxfile>
